<svg id="Group_22043" data-name="Group 22043" xmlns="http://www.w3.org/2000/svg" xmlns:xlink="http://www.w3.org/1999/xlink" width="94.525" height="99.979" viewBox="0 0 94.525 99.979">
  <defs>
    <clipPath id="clip-path">
      <rect id="Rectangle_8698" data-name="Rectangle 8698" width="94.525" height="99.979" fill="none"/>
    </clipPath>
  </defs>
  <g id="Group_22042" data-name="Group 22042" clip-path="url(#clip-path)">
    <path id="Path_13292" data-name="Path 13292" d="M76.333,82.459c0-.327,0-.558,0-.789,0-2.3-.031-4.6,0-6.892.039-2.911,1.758-4.564,4.663-4.558q4.283.009,8.567,0c2.98-.01,4.657,1.66,4.655,4.659q-.005,8.181-.009,16.361c0,.794.039,1.588.049,2.382a4.125,4.125,0,0,1-4.063,4.281c-3.22.046-6.443.071-9.661-.007a4.22,4.22,0,0,1-4.183-4.006c.011-2.554-.019-5.109-.021-7.664,0-.32.049-.6-.425-.6-2.061.011-4.122-.02-6.182.021a1.643,1.643,0,0,0-.982.464q-2.217,2.108-4.363,4.288a1.585,1.585,0,0,0-.424,1c-.019,2.168.025,4.336.039,6.5.009,1.519-.542,2.073-2.042,2.073H32.513c-1.511,0-2.069-.524-2.081-2.049-.017-2.19,0-4.38.023-6.569a1.4,1.4,0,0,0-.465-1.129c-1.455-1.4-2.867-2.841-4.318-4.244a1.272,1.272,0,0,0-.778-.337c-2.168-.044-4.336-.044-6.5-.075-.456-.006-.457.252-.455.583.017,2.4.021,4.809.036,7.214a4.139,4.139,0,0,1-2.653,4.216,5.073,5.073,0,0,1-1.692.315c-3.027.031-6.055-.007-9.082.022A4.382,4.382,0,0,1,0,93.448C.03,89.476.009,85.5.008,81.531c0-2.211-.007-4.423,0-6.635.01-2.956,1.754-4.683,4.69-4.677q4.38.009,8.76,0a4.2,4.2,0,0,1,4.493,4.452c.009,2.512-.007,5.024-.009,7.536a1.471,1.471,0,0,0,.055.249c.74,0,1.486,0,2.233,0,1.589.006,3.178.021,4.766.01a.985.985,0,0,0,.63-.209q2.261-2.2,4.476-4.449a1.246,1.246,0,0,0,.32-.784c.03-2.812.047-5.625.013-8.437a1.474,1.474,0,0,0-.521-.943c-2.773-2.371-5.555-4.734-8.371-7.054a3.34,3.34,0,0,1-1.314-2.829c.041-5.281.02-10.563.009-15.845a2.29,2.29,0,0,1,.88-1.9c2.873-2.385,5.719-4.8,8.591-7.192a1.812,1.812,0,0,0,.742-1.574c-.045-3.306-.023-6.613,0-9.919a1.827,1.827,0,0,0-.594-1.47c-1.4-1.333-2.746-2.719-4.123-4.074a.923.923,0,0,0-.531-.3c-2.4-.02-4.8-.013-7.235-.013,0,2.582-.02,5.109.007,7.635A4.14,4.14,0,0,1,16,27.038a4.574,4.574,0,0,1-2.107.658c-3.2.074-6.4.094-9.593.026A4.16,4.16,0,0,1,.015,23.309c-.028-2.533-.006-5.067-.006-7.6q0-5.443,0-10.886A4.834,4.834,0,0,1,.658,2.171,4.218,4.218,0,0,1,4.377.013q4.7-.023,9.4,0A4.1,4.1,0,0,1,17.905,3.9c.1,2.551.051,5.108.03,7.663-.005.59.1.8.771.784,2.017-.053,4.036.008,6.054-.014a1.444,1.444,0,0,0,.911-.337c1.454-1.4,2.863-2.843,4.309-4.25a1.429,1.429,0,0,0,.457-1.137c-.021-1.4-.013-2.791-.018-4.187C30.414.87,30.953.295,32.492.293q14.751-.015,29.5-.01c1.379,0,1.916.51,1.96,1.9.046,1.437,0,2.877.041,4.315a1.578,1.578,0,0,0,.365.965c1.46,1.543,2.951,3.059,4.457,4.558a1.24,1.24,0,0,0,.786.328c2.168.018,4.336-.012,6.5,0,.425,0,.483-.173.48-.544-.022-2.426-.044-4.852-.019-7.278A4.135,4.135,0,0,1,79.575.23,5.962,5.962,0,0,1,81.16.018C84.08,0,87,0,89.92.009a4.282,4.282,0,0,1,4.589,4.535c.027,4.616.008,9.233.009,13.849,0,1.632.015,3.264,0,4.9a4.2,4.2,0,0,1-4.332,4.442c-3.111.056-6.225.038-9.337.008a4.077,4.077,0,0,1-4.018-2.771,5.391,5.391,0,0,1-.269-1.895c-.016-2.447.017-4.894.03-7.341a1.511,1.511,0,0,0-.064-.264H75.47c-1.954,0-3.908-.014-5.861.015a1.339,1.339,0,0,0-.838.336q-2.261,2.2-4.461,4.465a1.422,1.422,0,0,0-.38.893c0,3.456.039,6.913.05,10.37a1.281,1.281,0,0,0,.531,1.081c2.993,2.511,5.955,5.059,8.946,7.573a1.94,1.94,0,0,1,.649,1.657q-.012,6.893-.01,13.785c0,.9-.006,1.8.02,2.7a2.08,2.08,0,0,1-.786,1.747c-2.965,2.51-5.918,5.035-8.9,7.531a1.257,1.257,0,0,0-.513,1.09c.033,2.662.025,5.325.073,7.986a1.63,1.63,0,0,0,.4,1.015c1.463,1.511,2.965,2.985,4.466,4.46a.9.9,0,0,0,.546.271c2.274.019,4.548.012,6.924.012m-42.84-.581c0,4.787.01,9.575-.014,14.362,0,.553.2.633.673.632q12.977-.026,25.954-.01c.609,0,.762-.156.761-.74-.017-9.381-.007-18.763-.031-28.144a2.69,2.69,0,0,1,1.074-2.263c2.941-2.437,5.847-4.917,8.753-7.4a.955.955,0,0,0,.3-.644q.025-7.535,0-15.07a1.032,1.032,0,0,0-.331-.692c-2.722-2.332-5.415-4.7-8.217-6.934a3.926,3.926,0,0,1-1.594-3.456c.056-9.145.022-18.29.037-27.435,0-.54-.156-.692-.688-.691q-12.752.022-25.5.012c-1.159,0-1.157.014-1.156,1.165q.007,13.814.026,27.629a2.747,2.747,0,0,1-1.074,2.327c-2.878,2.38-5.72,4.8-8.547,7.243a1.631,1.631,0,0,0-.541,1.072q-.048,7.342,0,14.684a1.208,1.208,0,0,0,.378.808q4.444,3.817,8.93,7.587A2.151,2.151,0,0,1,33.5,67.71c-.018,4.723-.009,9.446-.009,14.168M82.678,19.987a1.392,1.392,0,0,1-.156.184c-.8.619-1.6,1.231-2.386,1.857a1.127,1.127,0,0,0-.4.467c-.415,1.346.076,2.081,1.453,2.188.469.036.944.024,1.415.019,1.716-.017,3.433-.043,5.149-.059.836-.008,1.677.048,2.508-.021a1.462,1.462,0,0,0,.965-.5,1.73,1.73,0,0,0-.4-2.247l-2.412-1.864c.557-.741,1.039-1.422,1.575-2.057.09-.106.441-.079.622,0a4.981,4.981,0,0,1,.8.561c.016-.228.024-.312.026-.4.052-2.091.052-2.091-1.633-3.341-1.432-1.062-1.432-1.062-.356-2.46.749-.974.749-.974,1.724-.284.044.031.116.021.267.045,0-.6-.024-1.164.007-1.73a1.047,1.047,0,0,0-.5-1.024c-.726-.5-1.412-1.049-2.129-1.557-.353-.25-.432-.458-.112-.818a18.579,18.579,0,0,0,1.177-1.529c.267-.372.511-.477.867-.1a3.715,3.715,0,0,0,.686.437c-.024-.3-.05-.449-.046-.595.044-1.906-.139-2.027-2.116-2.051-2.489-.031-4.978-.015-7.468-.006a3.507,3.507,0,0,0-1.268.139,1.331,1.331,0,0,0-.75.758,8.763,8.763,0,0,0-.034,1.8l1.132-.83c.517.687.987,1.348,1.5,1.975.264.325.259.523-.089.777-.744.544-1.466,1.12-2.187,1.695-.142.113-.338.276-.345.424-.036.71-.016,1.423-.016,2.237l1.142-.8,1.775,2.43c-.919.719-1.748,1.361-2.566,2.017-.141.113-.331.279-.338.428-.036.712-.016,1.427-.016,2.238l1.135-.773,1.8,2.355M3.312,12.172a4.9,4.9,0,0,1,.71-.644.53.53,0,0,1,.51.05c.493.592.963,1.208,1.4,1.845a.57.57,0,0,1-.093.546,6.338,6.338,0,0,1-1.4,1.021c-1.411.648-1.493,1.809-1.322,3.1a1.845,1.845,0,0,0,.175.409,5.89,5.89,0,0,1,.733-.643.5.5,0,0,1,.476.022c.558.7,1.081,1.417,1.635,2.158-.932.708-1.8,1.362-2.667,2.03-.641.5-.377,1.164-.286,1.781.083.57.507.764,1.024.778.792.023,1.585.03,2.378.032,2.253.007,4.505.016,6.758.006.588,0,1.186-.068,1.421-.756a1.817,1.817,0,0,0-.589-2.032c-.792-.607-1.581-1.217-2.4-1.847l1.881-2.443,1.151.813c0-.751.024-1.4-.015-2.035a.881.881,0,0,0-.314-.556c-.864-.7-1.75-1.363-2.681-2.079.442-.583.866-1.141,1.291-1.7.574-.754.573-.752,1.356-.172a4.2,4.2,0,0,0,.381.216c0-.746.025-1.41-.016-2.069a.912.912,0,0,0-.328-.568c-.733-.594-1.5-1.143-2.233-1.738-.138-.112-.287-.443-.226-.529.516-.728,1.079-1.423,1.637-2.139l1.181.8c0-.43.005-.729,0-1.028-.025-1.261-.331-1.649-1.584-1.667q-4.344-.061-8.689,0A1.676,1.676,0,0,0,3.3,5.777a2.268,2.268,0,0,0,.448-.342c.365-.458.641-.365.948.071.357.508.741,1,1.146,1.471.286.333.219.545-.113.78-.614.432-1.212.886-1.814,1.334a2.541,2.541,0,0,0-.606,3.08M6.127,90.234c-.88.671-1.714,1.3-2.541,1.938a1.721,1.721,0,0,0-.379,1.936,1.12,1.12,0,0,0,1.229.72q4.541-.007,9.081,0a1.132,1.132,0,0,0,1.24-.709,1.908,1.908,0,0,0-.4-1.918c-.845-.647-1.685-1.3-2.55-1.968L13.66,87.8l1.146.812c0-.624-.028-1.155.008-1.682a1.117,1.117,0,0,0-.544-1.12c-.855-.589-1.654-1.26-2.493-1.909l1.874-2.445,1.155.827c0-.607-.037-1.117.01-1.618a1.152,1.152,0,0,0-.551-1.177c-.72-.5-1.4-1.062-2.073-1.631a.586.586,0,0,1-.134-.543c.5-.713,1.056-1.393,1.615-2.113l1.133.8c0-.588-.01-1.072,0-1.555a.981.981,0,0,0-.9-1.068,3.468,3.468,0,0,0-.7-.059c-2.834,0-5.668-.015-8.5.021a1.774,1.774,0,0,0-1.272.4,2.831,2.831,0,0,0-.206,2.333,4.871,4.871,0,0,1,.75-.643.587.587,0,0,1,.549.031,22.708,22.708,0,0,1,1.4,1.846.564.564,0,0,1-.1.538c-.631.514-1.285,1-1.956,1.465-.473.326-.889.617-.787,1.314A11.714,11.714,0,0,1,3.1,82.3l.2.021,1.04-.82,1.8,2.411c-.791.6-1.521,1.163-2.255,1.716a2.566,2.566,0,0,0-.586,2.994,4.782,4.782,0,0,1,.7-.551c.141-.075.453-.081.526.01.545.683,1.051,1.4,1.6,2.149m73.324-1.547a5.372,5.372,0,0,0,.68-.491c.369-.382.617-.316.9.117a17.7,17.7,0,0,0,1.16,1.542c.239.292.191.466-.1.674-.7.5-1.378,1.023-2.066,1.535a1.633,1.633,0,0,0-.523,2c.233.665.78.771,1.4.769,2.94-.008,5.881,0,8.821,0,.581,0,1.158-.032,1.34-.723.208-.791.2-1.537-.458-1.969-.851-.563-1.633-1.233-2.492-1.892l1.832-2.423,1.229.79a12.153,12.153,0,0,1,.009-1.341,1.586,1.586,0,0,0-.8-1.609c-.771-.536-1.5-1.137-2.3-1.752l1.862-2.442,1.241.825c0-.66-.041-1.173.012-1.677a1.134,1.134,0,0,0-.546-1.136c-.714-.513-1.4-1.073-2.117-1.574-.32-.222-.409-.378-.126-.7.326-.369.606-.777.9-1.174.64-.862.638-.862,1.494-.263a2.711,2.711,0,0,0,.371.165c0-.519.018-.942,0-1.363-.04-.808-.388-1.222-1.185-1.228q-4.635-.039-9.271.008a1.341,1.341,0,0,0-1.007.422,3.251,3.251,0,0,0-.2,2.3c.192-.139.3-.2.39-.285.7-.6.7-.6,1.281.141.079.1.164.2.241.3.351.468.7.936,1.035,1.384-.928.712-1.763,1.347-2.59,1.993-.147.114-.366.267-.373.41-.037.757-.018,1.517-.018,2.436a8.822,8.822,0,0,0,.661-.591c.327-.365.576-.334.857.068.381.544.792,1.069,1.217,1.58.262.314.194.5-.115.726q-1.126.8-2.221,1.649c-.175.135-.395.343-.408.531-.049.7-.019,1.4-.019,2.27M28.273,13.8l2.1,1.986V11.649l-2.1,2.148m2.093,72.192V82.12L28.256,84.2l2.11,1.784m33.8-74.25V15.8l2.07-1.883-2.07-2.176m0,74.289,1.9-1.828-1.9-1.956Z" transform="translate(0 0)" fill="#656565"/>
    <path id="Path_13293" data-name="Path 13293" d="M61.245,84.85c0-4.379.007-8.758-.019-13.137a1.213,1.213,0,0,0-.415-.791c-2.831-2.435-5.662-4.87-8.537-7.252a2.964,2.964,0,0,1-1.2-2.537q.086-5.021.036-10.046a2.779,2.779,0,0,1,1.1-2.327c2.8-2.341,5.558-4.727,8.358-7.066a1.722,1.722,0,0,0,.683-1.478q-.033-12.88-.021-25.76c0-1.368.576-1.9,2.079-1.9q7.953-.009,15.906,0c.536,0,1.076,0,1.608.047a1.534,1.534,0,0,1,1.5,1.548c.043.706.05,1.416.05,2.124,0,8.093-.012,16.186.012,24.278a1.469,1.469,0,0,0,.505.948q4.3,3.741,8.645,7.425a2.533,2.533,0,0,1,.991,2.157c-.051,3.455-.034,6.912-.01,10.368a2.169,2.169,0,0,1-.806,1.8c-2.845,2.419-5.667,4.864-8.533,7.256a2.073,2.073,0,0,0-.845,1.789c.042,8.436.042,16.872.056,25.309,0,1.678-.5,2.213-2.174,2.215q-8.436.009-16.872,0c-1.559,0-2.1-.541-2.108-2.088q-.013-6.44,0-12.88ZM79.277,96.626c0-.961,0-1.88,0-2.8q-.005-11.43-.013-22.86a2.161,2.161,0,0,1,.785-1.751c.945-.806,1.855-1.654,2.8-2.455,2-1.688,4.025-3.347,6.014-5.048a1.471,1.471,0,0,0,.525-.936c.039-3.069.029-6.139.01-9.208a.963.963,0,0,0-.278-.655c-2.887-2.468-5.766-4.946-8.7-7.353a3.006,3.006,0,0,1-1.184-2.6c.033-8.242.013-16.484.007-24.727,0-.163-.029-.326-.045-.488H64.39v.683q0,12.332.007,24.663a2.547,2.547,0,0,1-.9,2.148c-2.937,2.476-5.838,4.994-8.772,7.473a1.276,1.276,0,0,0-.508,1.093c.018,2.833.033,5.667,0,8.5a1.706,1.706,0,0,0,.685,1.477c2.717,2.27,5.387,4.6,8.119,6.847A3.425,3.425,0,0,1,64.39,71.55c-.044,7.835-.014,15.669-.008,23.5,0,.509,0,1.018,0,1.572Z" transform="translate(-24.624 -6.052)" fill="#656565"/>
    <path id="Path_13294" data-name="Path 13294" d="M162.12,20.68c0-2.015.011-4.029-.009-6.043,0-.412.15-.528.526-.516a15.917,15.917,0,0,0,1.8,0c.643-.053.842.151.824.816-.054,2.1-.039,4.2-.04,6.3,0,1.779,0,3.558.036,5.336.013.572-.177.76-.737.718a14.788,14.788,0,0,0-1.8-.006c-.429.021-.6-.076-.6-.562.03-2.015.012-4.029.012-6.044Z" transform="translate(-78.155 -6.804)" fill="#656565"/>
    <path id="Path_13295" data-name="Path 13295" d="M14.458,14.2h3a2.421,2.421,0,0,1,.048.327c0,4.011-.017,8.022.009,12.032,0,.636-.187.827-.8.774s-1.246.016-1.863-.036c-.163-.013-.438-.277-.438-.426-.022-4.139-.014-8.279-.01-12.418a1.53,1.53,0,0,1,.056-.253" transform="translate(-6.941 -6.844)" fill="#656565"/>
    <path id="Path_13296" data-name="Path 13296" d="M14.37,156.213c0-2,.007-3.992-.006-5.987,0-.421.067-.627.573-.573a12.686,12.686,0,0,0,1.929.023c.5-.023.616.188.613.646-.019,2.833-.019,5.666-.019,8.5,0,1.159,0,2.318.032,3.477.01.417-.126.575-.55.558-.664-.027-1.332-.035-1.995,0-.466.025-.584-.151-.58-.591.018-2.017.008-4.034.008-6.052Z" transform="translate(-6.925 -72.145)" fill="#656565"/>
    <path id="Path_13297" data-name="Path 13297" d="M164.806,162.825h-3.043c-.021-.33-.059-.643-.06-.957-.008-3.862,0-7.724-.023-11.585,0-.5.1-.691.642-.631a11.727,11.727,0,0,0,1.864.021c.475-.024.645.143.644.619,0,2.21.024,4.42.029,6.63,0,1.738-.007,3.476-.014,5.214,0,.21-.023.421-.039.69" transform="translate(-77.947 -72.143)" fill="#656565"/>
  </g>
</svg>
