<svg xmlns="http://www.w3.org/2000/svg" width="36.024" height="107.251" viewBox="0 0 36.024 107.251">
  <g id="Group_21792" data-name="Group 21792" transform="translate(-686.282 -7745)">
    <path id="Path_330" data-name="Path 330" d="M428.626,987.148l-5.244-.452.029-1.719a3.026,3.026,0,0,0-2.565-2.959l.028-10.344a3.443,3.443,0,0,0-.366-1.495,2.075,2.075,0,0,0,.4-1.071v-1.72a1.69,1.69,0,0,0-1.269-1.634,1.9,1.9,0,0,1-.451-.931,1.651,1.651,0,0,1,.478-.93,1.7,1.7,0,0,0,1.241-1.635l.028-1.719a1.722,1.722,0,0,0-1.269-1.662,1.809,1.809,0,0,1-.452-.931,1.9,1.9,0,0,1,.452-.93,1.691,1.691,0,0,0,1.269-1.635l.028-1.719a1.791,1.791,0,0,0-.873-1.495v-.224a3.39,3.39,0,0,0-1.691-2.961v-2.2a1.716,1.716,0,0,0-.846-1.466v-1.1a2.572,2.572,0,0,0-1.691-2.424v-1.607c1.945-3.1.17-6.4-1.071-7.723a.876.876,0,0,0-.62-.253l-5.157-.029a.874.874,0,0,0-.62.253c-1.241,1.325-3.044,4.6-1.128,7.724v1.606a2.561,2.561,0,0,0-1.719,2.4v1.1a1.754,1.754,0,0,0-.875,1.494v2.17a3.439,3.439,0,0,0-1.719,2.96v.225a1.721,1.721,0,0,0-.873,1.495v1.719a1.7,1.7,0,0,0,1.24,1.635,1.186,1.186,0,0,1,0,1.861,1.69,1.69,0,0,0-1.269,1.634v1.72a1.759,1.759,0,0,0,1.241,1.663,1.609,1.609,0,0,1,.451.931,1.533,1.533,0,0,1-.451.9,1.749,1.749,0,0,0-1.268,1.664v1.719a1.675,1.675,0,0,0,.366,1.043,3.558,3.558,0,0,0-.366,1.522l-.057,10.345a2.975,2.975,0,0,0-2.565,2.931l-.029,1.719-5.214.423a.839.839,0,0,0-.79.847v4.283a.883.883,0,0,0,.761.875l5.215.451v2.989h-.846a3.453,3.453,0,0,0-3.467,3.41v.873a3.439,3.439,0,0,0,1.382,2.734,2.641,2.641,0,0,0-.536,1.551v.845a2.481,2.481,0,0,0,.676,1.721,2.581,2.581,0,0,0-.676,1.719v.873a2.422,2.422,0,0,0,.648,1.719,2.464,2.464,0,0,0-.677,1.691v.875a2.7,2.7,0,0,0,.649,1.719,2.746,2.746,0,0,0-.677,1.691v.873a2.53,2.53,0,0,0,.677,1.719,2.478,2.478,0,0,0-.677,1.719v.846a2.581,2.581,0,0,0,2.565,2.594h.846v1.719a1.726,1.726,0,0,0,1.719,1.719h3.41a3.435,3.435,0,0,0,3.44,3.439l-.029,1.719a1.707,1.707,0,0,0,1.719,1.719l3.439.029a1.725,1.725,0,0,0,1.719-1.718v-1.721a3.41,3.41,0,0,0,3.439-3.41H419.8l-.028,5.158a3.428,3.428,0,0,1-3.439,3.411l-6-.027a.86.86,0,0,0,0,1.719l6,.027a5.136,5.136,0,0,0,5.158-5.129l.028-5.158a1.685,1.685,0,0,0,1.72-1.691v-1.719h.873a2.575,2.575,0,0,0,2.565-2.566l.029-.845a2.477,2.477,0,0,0-.677-1.719,2.533,2.533,0,0,0,.677-1.719v-.847a2.6,2.6,0,0,0-.648-1.719,2.9,2.9,0,0,0,.676-1.72v-.872a2.59,2.59,0,0,0-.676-1.72,2.463,2.463,0,0,0,.676-1.69v-.875a2.714,2.714,0,0,0-.648-1.72,2.612,2.612,0,0,0,.677-1.719v-.845a2.462,2.462,0,0,0-.536-1.552,3.386,3.386,0,0,0,1.409-2.734v-.847a3.453,3.453,0,0,0-3.412-3.466h-.872l.027-2.989,5.215-.423a.837.837,0,0,0,.79-.845v-4.285a.883.883,0,0,0-.761-.874M409.4,933.9h4.369c.591.818,2.142,3.185.507,5.525a.957.957,0,0,0-.141.478v1.721h-5.158v-1.721a1.154,1.154,0,0,0-.141-.506c-1.607-2.339-.057-4.707.564-5.5m-2.142,10.289a.871.871,0,0,1,.846-.873l6.877.028a.854.854,0,0,1,.846.873v.846l-8.569-.028Zm-.873,2.565,10.288.029V948.5l-10.288-.029Zm0,3.439,10.288.028a1.7,1.7,0,0,1,1.691,1.72l-13.7-.058a1.685,1.685,0,0,1,1.72-1.69m-2.594,3.41,15.446.057-.029,1.719-15.417-.057Zm13.868,5.186-12.347-.028a2.288,2.288,0,0,0,.17-.873,2.808,2.808,0,0,0-.141-.847l12.318.057a2.659,2.659,0,0,0-.169.846,2.052,2.052,0,0,0,.169.846m-13.9,1.662,15.446.086-.027,1.691-15.42-.057Zm13.869,5.215-12.319-.057a2.624,2.624,0,0,0,.141-.845,2.961,2.961,0,0,0-.141-.875l12.319.057a2.975,2.975,0,0,0-.17.845,2.286,2.286,0,0,0,.17.875m-13.9,1.664,15.447.055v1.72l-15.447-.057Zm0,4.284a1.722,1.722,0,0,1,.225-.846l14.968.057a1.719,1.719,0,0,1,.225.847l-.028,10.288-15.446-.057Zm-2.65,13.276a1.307,1.307,0,0,1,1.3-1.269l18.012.057a1.293,1.293,0,0,1,1.3,1.3v1.579l-3.383-.283c0-.028-.028-.028-.057-.028l-13.811-.029-3.355.255Zm17.2,9.076,3.382-.253-.028,2.847-20.577-.084v-2.848l3.439.282Zm-12.91-1.748v-4.285l12.008.029v4.285Zm-10.288-.844V988.67l8.569-.677v4.144Zm17.842,42.9-3.439-.03v-1.692h3.439Zm1.719-3.44H407.8a1.75,1.75,0,0,1-1.72-1.748l10.289.057a1.685,1.685,0,0,1-1.72,1.691m6.877-3.383-20.577-.084v-1.719l20.577.084Zm3.467-4.285a.872.872,0,0,1-.873.847l-25.735-.086a.854.854,0,0,1-.846-.874v-.846a.83.83,0,0,1,.846-.845l25.735.084a.872.872,0,0,1,.873.846Zm0-4.283a.847.847,0,0,1-.846.846l-25.734-.085a.878.878,0,0,1-.875-.873v-.846a.879.879,0,0,1,.875-.874l25.734.113a.848.848,0,0,1,.846.846Zm.029-4.286a.874.874,0,0,1-.875.847l-25.734-.113a.83.83,0,0,1-.846-.844v-.847a.872.872,0,0,1,.846-.873l25.734.112a.856.856,0,0,1,.875.847Zm0-4.312a.873.873,0,0,1-.846.873l-25.735-.112a.854.854,0,0,1-.873-.846v-.873a.892.892,0,0,1,.873-.847l25.735.085a.871.871,0,0,1,.846.873Zm.028-4.285a.878.878,0,0,1-.873.875l-25.735-.113a.868.868,0,0,1-.846-.846v-.873a.856.856,0,0,1,.875-.847l25.734.085a.873.873,0,0,1,.846.875Zm-.846-7.722a1.726,1.726,0,0,1,1.72,1.719v.873a1.7,1.7,0,0,1-1.72,1.691l-25.734-.085a1.726,1.726,0,0,1-1.72-1.719v-.873a1.721,1.721,0,0,1,1.72-1.691Zm3.467-6.767-8.569.677v-4.144l8.569.734Z" transform="translate(292.919 6812.816)" fill="#656565"/>
  </g>
</svg>
